PathFileType	4	(X/Y/Z)	C:\Users\°ÂÌØÂü\Desktop\20210112\bx_y_5_501-Unnamed.trc
DataRate	CameraRate	NumFrames	NumMarkers	Units	OrigDataRate	OrigDataStartFrame	OrigNumFrames
50.00	50.00	       4	0	mm	50.00	1	       519
Frame#	Time	
		

1	0.000	-600.07568	-2.89869	1048.11816	-650.53674	-64.26797	853.64697	-649.46252	281.68805	874.66425	-596.43506	0.45799	800.52332				-700.48785	274.80432	746.05786	-732.98901	251.58902	637.88165	-703.43469	81.41792	572.84845	-677.11176	20.30410	519.85339	-736.81097	246.40858	575.03131	-778.69452	255.39676	502.12817	-683.32910	205.02765	532.50562	-716.77606	79.77840	215.98416	-711.97217	152.78329	216.27812	-771.92633	222.68993	204.55374	-882.71808	296.22659	144.56442	-674.82416	172.25571	157.48148	-595.01587	224.31303	174.17024	-667.01947	299.49307	159.08989	-629.63171	307.63327	161.31912	-561.84235	263.46475	165.06602	-528.08600	304.15735	146.47820	-654.83667	120.94523	1852.75305	-727.08246	284.50821	1542.37585	-624.50458	-77.21408	160.03059	-561.04413	-44.55342	162.65227	-517.48334	-72.70523	143.00581	-602.10840	19.26229	165.25682	-674.08112	56.98895	155.98476	-796.73260	172.29277	184.01111	-680.39203	-63.44957	1566.22815	-794.16766	57.78584	175.56520	-799.23315	95.91763	1043.14111	-772.16711	-33.99529	486.69397	-766.97144	-3.51529	205.63817	-875.64880	-79.04969	141.18465	-664.94446	-66.34532	163.57014	-726.44397	-23.85576	566.20630	-605.21564	107.38354	1435.44653	-594.81445	221.78395	1068.32776	-594.36768	215.59735	821.46997	-699.01971	143.79832	572.85004	-692.55499	-50.14299	704.93085	-713.16748	-26.47412	613.26123	
2	0.020	-599.97363	-2.91826	1048.02991	-650.44348	-64.19017	853.77795	-649.40918	281.84683	874.78882	-596.15912	0.57347	800.76245				-699.82642	273.77679	745.99359	-733.09363	251.61334	637.81055	-703.74640	81.76331	572.72491	-677.15582	20.19111	519.72223	-736.69379	246.46367	575.15094	-778.78595	255.28583	502.34317	-683.41083	205.03291	532.51703	-716.71442	79.34898	215.68544	-711.84589	152.82137	216.44434	-771.89453	222.63451	204.44681	-882.59216	296.17233	144.59991	-674.88568	172.18796	157.48343	-594.94476	224.33130	174.04872	-666.94879	299.75256	159.33398	-629.63171	307.63327	161.31912	-561.94421	263.62653	165.14729	-528.08221	303.93027	146.41638	-654.76672	120.95809	1852.73010	-726.80072	284.62054	1542.44531	-624.57025	-77.20102	159.92238	-561.41187	-44.43449	162.65736	-517.41461	-72.71278	143.10439	-602.16931	19.25233	165.14778	-674.08112	56.98895	155.98476	-796.44916	172.34550	183.70891	-680.30139	-63.55494	1566.24023	-794.16077	57.94541	175.46288	-799.14014	95.86190	1043.30127	-772.18103	-33.88895	486.58197	-766.96631	-3.44847	205.63156	-875.64880	-79.04969	141.18465	-665.07520	-66.28422	163.46217	-726.46808	-23.81448	565.89386	-605.30469	107.48469	1435.10205	-594.63214	221.74417	1068.49524	-594.25299	215.77451	821.44574	-699.23474	143.82036	573.17224	-692.61151	-50.13636	704.84998	-713.07880	-26.52012	613.34674	
3	0.040	-600.00592	-2.89222	1048.08789	-650.44348	-64.19017	853.77795	-649.52271	281.83868	874.66998	-596.31622	0.79999	800.85913				-699.82642	273.77679	745.99359	-733.31842	251.48949	637.52289	-703.45050	81.51915	572.77740	-677.15582	20.19111	519.72223	-736.69379	246.46367	575.15094	-778.89435	255.21649	502.16400	-683.21332	204.89014	532.54510	-716.71442	79.34898	215.68544	-712.03351	152.78564	216.20898	-771.96210	222.71629	204.52113	-882.67053	296.19333	144.58157	-674.86157	172.46684	157.53807	-595.03668	224.40614	174.02550	-667.06140	299.66241	159.28009	-629.63171	307.63327	161.31912	-561.73438	263.60596	165.01195	-528.08221	303.93027	146.41638	-654.48315	120.95956	1852.73010	-726.69287	284.72769	1542.38464	-624.53131	-77.21376	160.00334	-561.16138	-44.40337	162.66669	-517.39679	-72.93426	142.94649	-602.04254	19.35638	165.29738	-674.08112	56.98895	155.98476	-796.42218	172.30251	183.85957	-680.20721	-63.57004	1566.25879	-794.16077	57.94541	175.46288	-799.14758	95.82848	1043.21753	-772.17639	-33.90622	486.58237	-767.04083	-3.53474	205.40166	-875.94904	-79.04231	141.03226	-664.94446	-66.34532	163.57014	-726.58588	-23.74837	565.78619	-605.01257	107.53686	1435.28247	-594.70776	221.56827	1068.31848	-594.25299	215.77451	821.44574	-698.93329	143.76059	573.10333	-692.59967	-50.10096	704.91083	-713.16748	-26.47412	613.26123	
4	0.060	-599.94702	-2.93549	1048.04785	-650.53674	-64.26797	853.64697	-649.52972	281.70493	874.75946	-596.34680	0.56236	800.50702				-700.38812	274.67468	745.84454	-733.05426	251.73769	637.93317	-703.58612	81.61727	572.94629	-677.12018	20.19666	519.62384	-736.81097	246.40858	575.03131	-778.54425	255.36052	501.97101	-683.46069	205.12598	532.39044	-716.89398	79.47404	215.44829	-711.99457	152.75139	216.41005	-771.88934	222.94360	204.48222	-882.48059	295.97610	144.53694	-674.88898	172.47139	157.37840	-594.95917	224.24352	174.15552	-667.01947	299.49307	159.08989	-629.56586	307.54214	161.37218	-561.94360	263.64511	165.08839	-528.12634	304.18494	146.33830	-654.39264	120.89159	1852.72473	-726.47601	284.59985	1542.29004	-624.64276	-77.33475	160.00931	-561.11737	-44.44884	162.56041	-517.62000	-72.84602	142.81842	-602.09406	19.42474	165.32083	-674.08112	56.98895	155.98476	-796.63940	172.36549	183.93452	-680.00958	-63.34225	1566.23132	-794.20093	57.71787	175.47891	-799.12738	95.89098	1043.14355	-772.15637	-33.87452	486.64557	-766.99219	-3.39854	205.48935	-875.99457	-78.94872	141.12155	-665.00110	-66.30704	163.50461	-726.56635	-23.64257	565.93884	-604.95697	107.58150	1435.14868	-594.51984	221.66905	1068.56055	-594.54944	215.59711	821.26367	-698.93329	143.76059	573.10333	-692.47699	-50.23425	704.80341	-713.32916	-26.38010	613.11725	
